# xmcd
#
# Track frame offsets:
#	150
#	15406
#	30176
#	42597
#	60841
#	79410
#	89711
#	100235
#	113473
#	125383
#	143247
#
# Disc length: 2060 seconds
#
# Revision: 1
# Processed by: cddbd v1.5.1PL0 Copyright (c) Steve Scherf et al.
# Submitted via: audiograbber 1.83.01
#
DISCID=82080a0b
DTITLE=Billy Gillman - Christmas
DYEAR=2000
DGENRE=Christmas
TTITLE0=Santa.com
TTITLE1=Warm and Fuzzy
TTITLE2=Winter Wonderland
TTITLE3=The Christmas Song
TTITLE4=White Christmas
TTITLE5=Jingle Bell Rock
TTITLE6=Rockin' Around The Christmas Tree
TTITLE7=Angels We Have Heard On High
TTITLE8=Silent Night
TTITLE9=Away In A Manger
TTITLE10=Sleigh Ride
EXTD=
EXTT0=
EXTT1=
EXTT2=
EXTT3=
EXTT4=
EXTT5=
EXTT6=
EXTT7=
EXTT8=
EXTT9=
EXTT10=
PLAYORDER=
